<?xml version="1.0" standalone="no"?>
<!DOCTYPE svg PUBLIC "-//W3C//DTD SVG 20010904//EN"
 "http://www.w3.org/TR/2001/REC-SVG-20010904/DTD/svg10.dtd">
<svg version="1.0" xmlns="http://www.w3.org/2000/svg"
 width="770.000000pt" height="594.000000pt" viewBox="0 0 770.000000 594.000000"
 preserveAspectRatio="xMidYMid meet">
<metadata>
Created by potrace 1.16, written by Peter Selinger 2001-2019
</metadata>
<g transform="translate(0.000000,594.000000) scale(0.100000,-0.100000)"
fill="#000000" stroke="none">
<path d="M3555 4297 c-29 -11 -124 -73 -135 -87 -16 -21 -116 -80 -144 -85
-17 -4 -81 1 -141 10 -208 31 -256 -1 -340 -222 -32 -87 -73 -126 -167 -162
-143 -55 -184 -85 -213 -153 -19 -48 -19 -81 2 -200 21 -124 14 -148 -73 -259
-73 -91 -103 -148 -104 -192 0 -40 37 -113 96 -187 59 -74 94 -135 94 -165 0
-11 -7 -69 -17 -128 -14 -89 -15 -116 -5 -155 16 -62 77 -119 163 -151 95 -35
159 -68 180 -94 10 -12 30 -53 45 -92 86 -224 135 -255 350 -220 133 22 152
17 267 -74 106 -84 169 -109 234 -92 41 11 75 33 194 123 35 26 77 50 93 53
17 4 74 -1 126 -9 126 -21 163 -20 212 5 62 32 70 44 153 234 14 33 34 68 43
78 17 19 85 53 196 98 39 16 71 38 97 67 55 63 60 112 27 288 -14 77 5 139 63
204 22 25 56 69 77 98 31 46 36 61 37 111 0 76 -30 132 -122 231 -43 46 -67
109 -60 157 3 21 11 74 17 118 24 167 -12 222 -193 296 -125 51 -158 79 -187
157 -87 239 -131 267 -371 233 -52 -8 -107 -11 -121 -8 -14 4 -52 27 -85 52
-164 128 -218 151 -288 122z m280 -186 c259 -50 457 -157 638 -345 88 -91 146
-174 205 -291 36 -70 51 -113 103 -282 16 -52 30 -262 24 -348 -15 -191 -98
-424 -208 -584 -89 -130 -238 -268 -377 -350 -125 -74 -214 -108 -360 -137
-112 -23 -141 -25 -285 -21 -88 3 -176 10 -195 15 -19 6 -60 18 -90 26 -434
118 -772 497 -845 947 -52 325 26 650 219 907 158 209 335 340 571 420 184 63
411 79 600 43z"/>
<path d="M3512 4092 c-10 -7 -9 -17 3 -51 8 -24 15 -56 15 -72 0 -17 5 -29 13
-29 16 0 16 81 0 95 -6 6 -13 22 -15 37 -2 19 -7 25 -16 20z"/>
<path d="M3560 4089 c0 -5 5 -7 10 -4 6 3 10 8 10 11 0 2 -4 4 -10 4 -5 0 -10
-5 -10 -11z"/>
<path d="M3273 4045 c-25 -11 -31 -18 -26 -32 7 -17 8 -17 11 0 7 34 20 16 38
-50 20 -78 19 -77 33 -69 7 5 2 30 -13 73 -24 63 -24 65 -5 70 10 3 16 9 13
14 -7 12 -13 11 -51 -6z"/>
<path d="M3938 4033 c-37 -43 -52 -113 -26 -129 6 -4 8 -3 5 3 -7 11 19 100
36 121 16 20 2 24 -15 5z"/>
<path d="M3971 3982 c-7 -26 -19 -57 -27 -69 -12 -20 -12 -23 0 -23 15 0 56
79 56 109 0 40 -18 29 -29 -17z"/>
<path d="M3057 3954 c-3 -3 10 -31 29 -62 19 -32 34 -63 34 -69 0 -7 4 -13 8
-13 20 0 19 15 -2 49 -12 20 -28 51 -35 69 -13 31 -22 38 -34 26z"/>
<path d="M4167 3928 c-74 -118 -74 -118 -52 -118 8 0 15 6 15 14 0 7 6 19 14
25 21 18 55 90 45 96 -4 3 -15 -5 -22 -17z"/>
<path d="M4220 3905 c0 -8 5 -15 10 -15 6 0 10 7 10 15 0 8 -4 15 -10 15 -5 0
-10 -7 -10 -15z"/>
<path d="M3515 3891 c-69 -11 -185 -38 -218 -50 -168 -64 -336 -191 -434 -328
-45 -64 -123 -211 -123 -234 0 -7 18 25 41 71 70 146 166 264 270 335 24 16
46 33 49 37 10 12 155 87 210 107 69 26 231 51 326 51 209 0 436 -87 602 -229
64 -55 146 -155 193 -233 18 -31 35 -55 37 -53 6 5 -65 122 -104 170 -92 116
-181 189 -310 254 -167 84 -386 126 -539 102z"/>
<path d="M4170 3860 c0 -5 4 -10 9 -10 6 0 13 5 16 10 3 6 -1 10 -9 10 -9 0
-16 -4 -16 -10z"/>
<path d="M2871 3768 c7 -13 22 -18 53 -18 48 0 66 -20 44 -49 -9 -12 -7 -11 7
2 18 16 19 20 5 45 -13 22 -24 28 -67 32 -47 5 -50 4 -42 -12z"/>
<path d="M2927 3699 c7 -7 15 -10 18 -7 3 3 -2 9 -12 12 -14 6 -15 5 -6 -5z"/>
<path d="M4484 3646 c-18 -18 -57 -48 -86 -67 -5 -3 -6 -13 -3 -21 5 -12 12
-10 35 14 17 16 34 27 40 23 18 -11 11 -25 -22 -45 l-33 -20 31 0 c23 0 34 6
42 25 7 14 20 25 31 25 10 0 22 7 25 16 9 25 -1 30 -22 11 -10 -10 -24 -17
-30 -17 -21 0 -13 25 14 41 20 12 22 18 12 25 -9 7 -19 4 -34 -10z"/>
<path d="M2685 3624 c-15 -24 -16 -28 -2 -35 8 -5 38 -27 65 -48 44 -35 62
-41 62 -21 0 3 -13 14 -30 23 -16 10 -30 22 -30 28 0 15 36 11 50 -6 14 -17
40 -20 40 -5 0 6 -18 18 -40 27 -22 10 -40 23 -40 30 0 12 -30 33 -48 33 -5 0
-17 -12 -27 -26z m53 -6 c16 -16 15 -38 -2 -38 -19 0 -48 29 -41 41 8 13 29
11 43 -3z"/>
<path d="M3215 3500 c-21 -56 -3 -115 44 -140 15 -8 18 -5 19 20 0 22 -5 30
-23 34 -21 5 -24 13 -27 59 -3 45 -4 49 -13 27z"/>
<path d="M3727 3464 c-14 -27 -43 -70 -66 -96 -49 -56 -52 -72 -11 -66 17 3
30 2 30 -2 0 -8 -53 -92 -76 -119 -11 -13 -31 -37 -46 -54 l-27 -32 22 -8 c12
-5 37 -6 55 -3 17 2 32 1 32 -4 0 -19 -47 -86 -89 -127 -24 -24 -41 -46 -38
-49 3 -3 29 -6 56 -7 32 0 51 -5 51 -12 0 -6 -25 -37 -55 -69 -30 -31 -55 -59
-55 -61 0 -2 10 -1 22 3 14 3 19 2 14 -6 -11 -18 -76 -15 -76 3 0 8 -5 15 -10
15 -6 0 -13 -7 -16 -15 -10 -24 -52 -19 -56 7 -4 30 -26 34 -30 6 -2 -19 -9
-23 -38 -24 -19 -1 -38 4 -42 10 -5 8 -8 7 -8 -1 0 -9 -16 -13 -45 -13 -29 0
-45 5 -46 13 -3 33 4 63 17 73 13 10 13 12 0 17 -10 4 -13 16 -9 44 4 28 1 42
-11 52 -23 19 -30 8 -31 -45 0 -26 -6 -48 -13 -53 -11 -7 -11 -9 2 -14 21 -8
23 -87 2 -87 -7 0 -16 9 -19 20 -3 11 -17 24 -31 30 -32 12 -39 38 -34 129 1
39 -1 71 -6 71 -4 0 -30 -12 -57 -27 -58 -33 -65 -28 -83 48 -13 54 -13 54
-24 26 -14 -34 -16 -219 -3 -265 l10 -32 -90 0 c-61 0 -89 4 -89 12 0 6 -3 9
-6 6 -11 -11 29 -135 72 -223 52 -109 185 -285 214 -285 5 0 -3 12 -17 28 -62
67 -113 131 -141 179 -33 56 -82 184 -81 211 0 10 4 7 9 -8 4 -14 15 -41 24
-60 15 -30 16 -31 11 -7 -16 82 -16 84 -6 60 8 -18 19 -23 49 -23 39 0 66 -14
75 -40 3 -8 6 4 6 28 1 47 15 56 25 16 4 -15 10 -24 13 -20 4 3 23 -20 44 -51
20 -32 62 -84 94 -117 l57 -58 -4 -129 c-3 -123 0 -139 26 -139 2 0 1 21 -1
48 -2 26 0 81 4 123 l8 76 38 -24 38 -24 -2 -122 c-1 -109 1 -122 16 -125 11
-3 15 0 10 8 -7 12 -7 211 0 218 2 2 20 -1 39 -8 l36 -12 0 -113 c0 -81 -4
-115 -12 -118 -7 -3 -3 -6 10 -6 22 -1 22 1 22 109 0 102 1 110 19 110 49 0
51 -6 51 -126 0 -85 3 -114 13 -114 9 0 11 27 9 111 l-3 110 43 -3 43 -3 3
-117 3 -118 72 2 c70 2 70 2 15 5 l-58 4 0 109 0 109 58 6 c84 8 161 25 215
46 26 11 50 19 53 19 3 0 4 -56 2 -125 -2 -101 0 -124 10 -120 8 3 14 5 15 5
1 0 1 57 -1 127 l-3 128 36 23 c46 29 47 26 43 -127 -2 -98 0 -120 10 -116 8
3 14 5 15 5 1 0 1 61 -1 136 l-4 136 66 66 c35 37 86 95 111 129 47 64 65 81
65 65 0 -6 34 -8 79 -6 64 3 80 1 85 -11 8 -21 21 -19 35 8 11 22 11 22 5 -3
-6 -27 -85 -192 -95 -200 -16 -12 -80 -102 -76 -106 6 -6 67 71 108 136 46 73
77 140 104 225 l21 70 -113 -3 -114 -3 8 38 c12 58 10 245 -4 268 -11 19 -12
18 -18 -10 -19 -96 -35 -108 -89 -71 -59 40 -64 36 -58 -43 6 -90 -1 -116 -37
-131 -16 -6 -31 -20 -34 -31 -3 -11 -14 -19 -26 -19 -18 0 -21 6 -21 46 0 31
5 51 16 58 14 11 14 16 0 49 -15 38 -25 44 -41 28 -13 -13 -39 10 -99 83 -52
64 -51 78 8 78 20 0 33 4 30 9 -3 5 2 6 10 3 26 -10 18 12 -11 31 -34 23 -70
65 -105 124 -34 56 -34 63 -5 52 32 -13 54 1 31 19 -22 19 -92 123 -109 162
l-13 32 -25 -50z m-754 -540 c45 45 57 36 57 -43 0 -71 -6 -81 -48 -81 -9 0
-30 -7 -46 -15 -16 -9 -32 -13 -35 -9 -3 3 -8 45 -9 92 l-4 87 30 -28 30 -28
25 25z m1259 2 l24 -25 30 25 29 26 3 -49 c4 -56 -6 -133 -17 -133 -4 0 -12 5
-19 12 -6 6 -31 14 -54 17 l-43 6 -3 73 c-3 81 7 91 50 48z m-258 -28 c27 2
28 1 23 -27 -4 -20 -2 -31 8 -35 10 -4 15 -20 15 -51 0 -45 0 -45 -35 -45 -19
0 -35 5 -35 10 0 6 7 10 15 10 8 0 15 5 15 10 0 6 -5 10 -11 10 -5 0 -15 14
-20 30 -6 17 -17 30 -24 30 -7 0 -16 7 -19 16 -11 28 -7 37 10 23 15 -12 16
-11 9 10 -5 18 -4 22 6 15 7 -4 27 -7 43 -6z m-244 -108 l0 -50 -65 0 c-80 0
-85 16 -16 47 26 13 54 30 61 38 18 22 20 20 20 -35z m82 8 c24 -26 31 -29 39
-17 8 12 10 12 18 0 5 -8 16 -11 25 -8 11 5 16 1 16 -13 0 -18 -7 -20 -70 -20
l-70 0 0 45 c0 25 3 45 6 45 3 0 19 -14 36 -32z m-747 -24 c14 -3 32 -30 53
-74 49 -106 131 -187 246 -246 91 -45 99 -47 198 -52 60 -3 127 1 161 8 150
31 295 144 362 284 32 67 40 76 69 81 91 18 114 -10 77 -90 -12 -25 -31 -66
-43 -92 -33 -72 -153 -191 -245 -243 -185 -106 -414 -119 -615 -33 -76 33
-190 116 -239 175 -74 89 -148 250 -127 275 11 13 67 17 103 7z m1225 -65 c0
-10 -4 -19 -10 -19 -5 0 -10 12 -10 26 0 14 4 23 10 19 6 -3 10 -15 10 -26z
m-1350 7 c0 -17 -14 -29 -23 -20 -8 8 3 34 14 34 5 0 9 -6 9 -14z m1377 -68
c-3 -8 -6 -5 -6 6 -1 11 2 17 5 13 3 -3 4 -12 1 -19z m-313 -4 c3 -8 2 -12 -4
-9 -6 3 -13 -2 -16 -12 -10 -30 -27 -63 -33 -63 -3 0 -5 17 -4 37 2 56 5 61
13 28 7 -29 8 -29 9 -4 2 39 23 54 35 23z m-754 -4 c0 -5 -5 -10 -11 -10 -5 0
-7 5 -4 10 3 6 8 10 11 10 2 0 4 -4 4 -10z m197 -117 c6 -77 2 -84 -38 -63
-16 9 -19 22 -19 80 0 56 3 70 15 70 8 0 15 8 16 18 1 40 20 -35 26 -105z
m106 1 l2 -99 -30 4 c-16 1 -33 5 -37 8 -5 2 -8 44 -8 93 0 68 3 89 15 94 8 3
19 -2 24 -12 9 -15 10 -14 11 8 0 16 3 21 10 14 6 -6 11 -55 13 -110z m-234
85 c1 11 6 10 21 -4 15 -13 20 -31 20 -67 0 -54 -6 -57 -44 -27 -26 21 -35 65
-19 105 6 16 7 16 14 -2 4 -11 8 -13 8 -5z m599 -26 c4 -50 -13 -70 -85 -106
-49 -25 -110 -41 -197 -53 l-49 -7 5 94 c2 52 7 99 10 105 5 7 61 10 160 10
l153 -1 3 -42z m-666 12 c3 -14 2 -25 -1 -25 -10 0 -30 37 -24 44 12 12 21 6
25 -19z"/>
<path d="M3028 2733 c-26 -6 -23 -43 2 -43 18 0 19 -3 10 -20 -11 -21 -8 -23
28 -14 25 7 30 24 7 24 -17 0 -20 16 -5 25 12 7 1 35 -14 34 -6 -1 -19 -3 -28
-6z"/>
<path d="M4168 2733 c19 -7 14 -23 -7 -23 -10 0 -22 -8 -25 -17 -10 -29 -29
-56 -73 -109 -23 -28 -41 -59 -40 -69 1 -12 -6 -21 -18 -23 -17 -4 -18 -3 -5
14 9 10 -2 6 -27 -11 -24 -15 -43 -32 -43 -36 0 -5 -6 -9 -12 -9 -7 0 -35 -11
-63 -24 -27 -13 -58 -27 -67 -30 -19 -6 -23 -32 -9 -55 8 -12 13 -11 30 10 19
23 20 23 33 6 12 -16 15 -16 33 -2 16 14 17 16 3 11 -25 -8 -30 8 -7 22 16 10
21 10 25 -3 4 -8 10 -15 15 -15 4 0 6 6 3 14 -4 11 4 16 27 18 27 2 33 7 33
29 1 18 -3 25 -11 22 -7 -3 -13 0 -13 6 0 23 30 23 49 0 16 -20 21 -21 35 -10
9 7 16 18 16 23 0 6 -7 5 -15 -2 -20 -17 -32 -5 -15 15 7 9 20 13 28 10 21 -8
52 4 52 21 0 17 -17 19 -22 2 -6 -16 -38 -2 -38 17 0 8 7 15 15 15 8 0 15 7
15 15 0 8 4 15 9 15 5 0 14 -7 21 -15 7 -8 17 -15 23 -15 6 0 0 11 -12 24 -12
13 -18 27 -13 30 5 3 15 -1 22 -9 15 -18 33 -20 28 -3 -3 7 5 18 16 23 12 6
21 19 21 30 0 11 5 23 10 27 6 5 5 8 -2 8 -22 0 -14 17 10 24 22 6 22 7 3 21
-11 8 -27 15 -35 14 -11 0 -12 -2 -3 -6z m2 -87 c0 -23 -17 -28 -34 -10 -21
21 -20 24 9 24 15 0 25 -6 25 -14z m-250 -216 c0 -5 -8 -10 -17 -10 -15 0 -16
2 -3 10 19 12 20 12 20 0z m35 -18 c-8 -8 -25 10 -19 20 4 6 9 5 15 -3 4 -7 6
-15 4 -17z m-75 -1 c0 -11 -31 -24 -39 -16 -3 3 1 10 9 15 19 12 30 12 30 1z
m-70 -31 c0 -5 -4 -10 -10 -10 -5 0 -10 5 -10 10 0 6 5 10 10 10 6 0 10 -4 10
-10z"/>
<path d="M3086 2618 c-20 -20 -24 -28 -13 -28 9 0 19 5 22 10 3 6 14 10 23 10
14 -1 13 -4 -5 -19 -29 -24 -30 -41 -2 -34 19 5 20 3 14 -18 -6 -20 -5 -22 6
-11 20 19 34 14 16 -6 -13 -14 -14 -21 -5 -30 18 -18 32 -14 17 4 -12 15 -11
16 11 11 14 -4 19 -4 13 -1 -7 3 -13 10 -13 15 0 14 28 11 33 -3 4 -10 6 -10
6 -1 2 20 -39 51 -60 46 -22 -6 -23 0 -9 28 6 10 7 19 2 19 -5 0 -13 8 -18 18
-8 15 -12 15 -38 -10z"/>
<path d="M3245 2476 c-37 -43 -38 -46 -19 -45 43 4 55 -1 49 -20 -7 -22 18
-46 40 -37 8 3 15 0 15 -6 0 -7 4 -7 14 1 11 10 16 8 21 -8 6 -18 54 -38 82
-33 6 2 14 -2 18 -8 10 -16 45 -12 45 6 0 13 -3 14 -15 4 -12 -10 -16 -9 -21
3 -3 9 -3 20 0 26 9 13 -33 41 -51 34 -8 -3 -20 2 -27 12 -7 10 -18 15 -24 11
-6 -3 -13 -2 -17 4 -10 16 -23 12 -30 -10 -7 -22 -35 -28 -35 -7 0 7 5 18 12
25 6 6 10 13 7 14 -2 2 -15 13 -29 25 -19 16 -28 18 -35 9z m25 -21 c0 -8 -4
-15 -10 -15 -5 0 -10 7 -10 15 0 8 5 15 10 15 6 0 10 -7 10 -15z m120 -59 c0
-11 -19 -15 -25 -6 -3 5 1 10 9 10 9 0 16 -2 16 -4z m67 -42 c-9 -9 -27 6 -27
22 0 13 2 13 16 -1 9 -9 14 -18 11 -21z m-41 5 c19 -22 19 -22 -6 -14 -32 9
-33 11 -25 24 8 15 9 14 31 -10z"/>
<path d="M3671 2371 c-42 -7 -61 -32 -42 -55 21 -25 57 -16 99 22 11 10 11 12
-4 12 -13 0 -14 3 -4 15 14 17 11 17 -49 6z m6 -27 c8 -21 -13 -42 -28 -27
-13 13 -5 43 11 43 6 0 13 -7 17 -16z"/>
<path d="M3518 2333 c5 -39 19 -44 24 -8 2 14 8 25 13 25 6 -1 9 -10 7 -20 -2
-11 2 -20 7 -20 6 0 11 6 11 14 0 8 3 22 6 31 5 13 0 16 -33 14 -37 -3 -38 -4
-35 -36z"/>
<path d="M3383 3460 c0 -25 2 -35 4 -22 2 12 2 32 0 45 -2 12 -4 2 -4 -23z"/>
<path d="M2565 3419 c-11 -17 -2 -18 19 -3 17 12 17 14 4 14 -9 0 -20 -5 -23
-11z"/>
<path d="M3350 3404 c0 -8 -4 -13 -9 -9 -6 3 -9 -3 -8 -14 1 -16 5 -17 24 -8
26 12 30 32 8 41 -9 3 -15 0 -15 -10z"/>
<path d="M4622 3402 c-13 -4 -22 -11 -21 -17 1 -5 -6 -14 -16 -20 -37 -20 -53
-38 -48 -51 3 -9 20 -1 55 26 27 22 53 40 58 40 4 0 10 7 14 15 6 16 -4 17
-42 7z"/>
<path d="M2545 3380 c-3 -6 4 -14 17 -19 13 -5 47 -20 75 -34 48 -23 63 -24
63 -7 0 3 -16 12 -36 19 -23 8 -34 18 -30 27 3 7 1 16 -4 19 -6 4 -10 -1 -10
-9 0 -20 -11 -20 -36 -1 -23 17 -31 18 -39 5z"/>
<path d="M4510 3381 c0 -5 11 -8 25 -7 33 1 33 16 0 16 -14 0 -25 -4 -25 -9z"/>
<path d="M2697 3359 c4 -15 8 -17 14 -8 8 14 3 29 -11 29 -4 0 -6 -9 -3 -21z"/>
<path d="M4476 3330 c7 -28 12 -35 18 -29 2 2 -2 15 -10 29 l-15 25 7 -25z"/>
<path d="M4509 3240 c8 -27 16 -48 18 -46 6 6 -19 96 -26 96 -4 0 -1 -22 8
-50z"/>
<path d="M2716 3225 c-3 -9 -6 -22 -5 -28 0 -7 5 -1 10 12 5 13 8 26 5 28 -2
2 -6 -3 -10 -12z"/>
<path d="M2490 3179 c0 -5 5 -7 10 -4 6 3 10 8 10 11 0 2 -4 4 -10 4 -5 0 -10
-5 -10 -11z"/>
<path d="M2702 3160 c0 -14 2 -19 5 -12 2 6 2 18 0 25 -3 6 -5 1 -5 -13z"/>
<path d="M4621 3167 c-14 -6 -26 -18 -29 -26 -3 -9 0 -11 7 -6 7 4 40 15 74
25 l62 18 -45 1 c-25 0 -56 -5 -69 -12z"/>
<path d="M4541 3144 c0 -11 3 -14 6 -6 3 7 2 16 -1 19 -3 4 -6 -2 -5 -13z"/>
<path d="M2533 3143 c-40 -3 -53 -8 -53 -20 0 -13 9 -15 53 -9 28 3 66 6 82 6
l30 1 -25 14 c-14 8 -27 14 -30 13 -3 -1 -29 -3 -57 -5z"/>
<path d="M4638 3117 c-37 -14 -35 -27 2 -27 23 0 30 4 30 20 0 11 -1 20 -2 19
-2 -1 -15 -6 -30 -12z"/>
<path d="M4715 3120 c-3 -5 1 -10 9 -10 8 0 18 5 21 10 3 6 -1 10 -9 10 -8 0
-18 -4 -21 -10z"/>
<path d="M2692 3090 c0 -19 2 -27 5 -17 2 9 2 25 0 35 -3 9 -5 1 -5 -18z"/>
<path d="M4553 3065 c0 -27 2 -38 4 -22 2 15 2 37 0 50 -2 12 -4 0 -4 -28z"/>
<path d="M2683 2960 c0 -36 2 -50 4 -32 2 17 2 47 0 65 -2 17 -4 3 -4 -33z"/>
<path d="M2470 2918 c0 -14 4 -16 24 -9 13 5 46 7 75 4 38 -3 51 -1 51 9 0 10
-19 13 -75 13 -64 0 -75 -2 -75 -17z"/>
<path d="M4606 2904 c-9 -24 -7 -28 9 -14 11 9 36 11 85 7 57 -5 70 -3 70 9 0
22 -155 20 -164 -2z"/>
<path d="M4553 2860 c0 -25 2 -35 4 -22 2 12 2 32 0 45 -2 12 -4 2 -4 -23z"/>
<path d="M2693 2815 c0 -22 2 -30 4 -17 2 12 2 30 0 40 -3 9 -5 -1 -4 -23z"/>
<path d="M3260 2828 c0 -13 -3 -33 -6 -44 -5 -18 -1 -21 21 -21 25 0 26 1 20
36 -4 20 -9 39 -11 43 -10 16 -24 7 -24 -14z"/>
<path d="M2580 2740 c-19 -4 -27 -8 -17 -9 26 -2 20 -13 -23 -43 -39 -27 -55
-56 -24 -44 9 3 22 6 30 6 8 0 14 8 14 18 0 9 18 27 40 40 62 35 55 48 -20 32z"/>
<path d="M2495 2720 c-3 -5 1 -10 10 -10 9 0 13 5 10 10 -3 6 -8 10 -10 10 -2
0 -7 -4 -10 -10z"/>
<path d="M4574 2688 c-8 -13 -7 -13 61 -30 33 -9 66 -17 74 -19 7 -2 15 1 17
6 5 13 -145 55 -152 43z"/>
<path d="M2645 2680 c3 -5 8 -10 11 -10 2 0 4 5 4 10 0 6 -5 10 -11 10 -5 0
-7 -4 -4 -10z"/>
<path d="M4267 2603 c-4 -3 -7 -11 -7 -17 0 -6 5 -5 12 2 6 6 9 14 7 17 -3 3
-9 2 -12 -2z"/>
<path d="M2655 2505 c-25 -12 -26 -14 -5 -9 14 4 29 10 35 15 12 12 5 11 -30
-6z"/>
<path d="M2716 2507 c9 -24 -6 -39 -65 -62 -28 -11 -51 -25 -51 -32 0 -17 6
-16 70 15 57 28 76 60 50 86 -8 8 -9 7 -4 -7z"/>
<path d="M4506 2501 c-4 -5 2 -7 13 -4 10 2 41 -7 70 -21 57 -30 68 -23 18 12
-33 22 -91 30 -101 13z"/>
<path d="M4500 2471 c0 -14 34 -40 73 -56 39 -16 78 -7 76 18 0 9 -2 9 -6 0
-7 -20 -33 -15 -90 16 -29 16 -53 26 -53 22z"/>
<path d="M4240 2249 c-55 -50 -50 -57 6 -9 29 26 60 60 53 60 -2 0 -29 -23
-59 -51z"/>
<path d="M3027 2217 c64 -52 103 -77 103 -68 0 6 -10 16 -22 22 -13 7 -39 25
-58 41 -19 15 -38 28 -43 28 -5 0 4 -10 20 -23z"/>
<path d="M2850 2198 c0 -6 -7 -20 -17 -30 -9 -10 -12 -18 -6 -18 5 0 19 14 31
30 18 24 20 30 7 30 -8 0 -15 -5 -15 -12z"/>
<path d="M4298 2189 c-10 -6 -14 -17 -11 -30 5 -17 11 -20 34 -15 35 7 48 -11
17 -23 -15 -7 -17 -10 -7 -10 9 -1 22 6 29 14 18 22 -5 48 -30 35 -17 -9 -30
-4 -30 11 0 4 8 9 18 11 9 2 13 6 7 10 -6 3 -18 2 -27 -3z"/>
<path d="M4155 2180 c-3 -6 1 -7 9 -4 18 7 21 14 7 14 -6 0 -13 -4 -16 -10z"/>
<path d="M2923 2153 c-7 -2 -13 -12 -13 -21 0 -13 2 -13 13 3 11 14 16 15 22
5 5 -8 2 -18 -8 -25 -9 -7 -13 -15 -9 -20 4 -4 -4 -4 -17 0 -16 5 -21 4 -17
-4 20 -31 70 1 64 40 -3 24 -15 31 -35 22z"/>
<path d="M4084 2134 c-18 -14 -18 -14 6 -3 31 14 36 19 24 19 -6 0 -19 -7 -30
-16z"/>
<path d="M4206 2111 c-16 -17 -16 -20 1 -50 20 -35 29 -37 58 -15 18 13 17 14
-13 8 -36 -7 -40 0 -14 29 17 19 16 19 -5 6 -31 -19 -41 -3 -12 20 13 11 19
20 13 21 -6 0 -18 -8 -28 -19z"/>
<path d="M3200 2100 c8 -5 22 -9 30 -9 10 0 8 3 -5 9 -27 12 -43 12 -25 0z"/>
<path d="M3020 2064 c-12 -30 -13 -44 -2 -44 7 0 32 47 32 62 0 18 -21 6 -30
-18z"/>
<path d="M2985 2060 c-3 -5 1 -10 10 -10 9 0 13 5 10 10 -3 6 -8 10 -10 10 -2
0 -7 -4 -10 -10z"/>
<path d="M3093 2022 c-14 -19 -18 -33 -12 -43 7 -11 9 -9 9 9 0 23 14 30 25
12 4 -6 1 -17 -5 -25 -8 -9 -8 -15 -2 -15 5 0 15 13 20 29 9 25 8 29 -4 24 -8
-3 -14 0 -14 6 0 6 5 11 10 11 6 0 10 5 10 10 0 18 -16 10 -37 -18z"/>
<path d="M3878 2043 c7 -3 16 -2 19 1 4 3 -2 6 -13 5 -11 0 -14 -3 -6 -6z"/>
<path d="M3828 2033 c6 -2 18 -2 25 0 6 3 1 5 -13 5 -14 0 -19 -2 -12 -5z"/>
<path d="M4080 2033 c1 -20 20 -37 29 -28 7 7 4 14 -9 23 -11 7 -20 9 -20 5z"/>
<path d="M3768 2023 c7 -3 16 -2 19 1 4 3 -2 6 -13 5 -11 0 -14 -3 -6 -6z"/>
<path d="M4144 2023 c4 -6 0 -13 -6 -15 -8 -3 -4 -9 10 -17 26 -14 29 -3 6 25
-8 10 -13 14 -10 7z"/>
<path d="M4020 1997 c0 -11 30 -67 35 -67 6 0 -16 52 -27 65 -4 5 -8 6 -8 2z"/>
<path d="M3195 1970 c-8 -26 1 -40 26 -40 28 0 37 30 14 46 -25 19 -33 18 -40
-6z"/>
<path d="M4106 1975 c4 -8 11 -15 16 -15 6 0 5 6 -2 15 -7 8 -14 15 -16 15 -2
0 -1 -7 2 -15z"/>
<path d="M3916 1962 c-7 -12 15 -82 26 -82 5 0 6 5 2 11 -4 7 3 19 16 29 29
22 21 50 -14 50 -14 0 -27 -4 -30 -8z m47 -17 c1 -5 -6 -11 -15 -13 -11 -2
-18 3 -18 13 0 17 30 18 33 0z"/>
<path d="M3320 1925 c-14 -37 -12 -49 5 -31 8 8 12 22 9 30 -4 12 0 16 15 16
24 0 27 -10 9 -28 -9 -9 -8 -12 6 -12 27 0 17 44 -11 48 -17 3 -26 -3 -33 -23z"/>
<path d="M3805 1903 c3 -21 11 -42 17 -48 8 -7 9 -5 5 8 -4 9 -3 17 1 17 5 0
16 6 26 13 26 19 10 47 -26 47 -29 0 -30 -1 -23 -37z m45 12 c0 -8 -7 -15 -15
-15 -8 0 -15 7 -15 15 0 8 7 15 15 15 8 0 15 -7 15 -15z"/>
<path d="M3437 1896 c-7 -46 -5 -52 9 -28 6 9 8 28 4 42 -6 22 -7 21 -13 -14z"/>
<path d="M3490 1906 c0 -9 -5 -16 -12 -16 -9 0 -9 -3 -1 -11 6 -6 9 -18 6 -27
-4 -9 -2 -13 4 -9 14 9 22 66 11 73 -4 3 -8 -2 -8 -10z"/>
<path d="M3558 1875 c-2 -19 0 -35 4 -35 4 0 8 16 8 35 0 19 -2 35 -4 35 -2 0
-6 -16 -8 -35z"/>
<path d="M3738 1875 c2 -19 6 -35 8 -35 2 0 4 16 4 35 0 19 -4 35 -8 35 -4 0
-6 -16 -4 -35z"/>
<path d="M3632 1868 c-2 -35 0 -38 26 -37 22 1 23 2 5 6 -16 3 -23 13 -26 36
-4 31 -4 31 -5 -5z"/>
</g>
</svg>
